<svg xmlns="http://www.w3.org/2000/svg" fill="currentColor" viewBox="0 0 20 20">
  <path d="M7.804 13.028H3.268l-.836 2.313H1L4.76 5h1.567l3.745 10.34H8.64l-.836-2.312Zm-.388-1.104L5.536 6.67l-1.88 5.253h3.76Zm3.788-.702c0-.835.169-1.567.507-2.193.338-.637.8-1.13 1.388-1.477a3.867 3.867 0 0 1 1.984-.523c.716 0 1.338.155 1.865.463.528.308.92.696 1.18 1.164V7.164H19.5v8.177h-1.373v-1.522c-.268.477-.671.875-1.208 1.193-.528.309-1.144.463-1.85.463a3.707 3.707 0 0 1-1.97-.537 3.767 3.767 0 0 1-1.388-1.507c-.338-.647-.507-1.383-.507-2.209Zm6.923.015c0-.617-.124-1.154-.373-1.611A2.568 2.568 0 0 0 16.74 8.58a2.662 2.662 0 0 0-1.387-.373c-.508 0-.97.12-1.388.358a2.598 2.598 0 0 0-1 1.045c-.248.457-.373.994-.373 1.611 0 .627.125 1.174.373 1.642.25.457.582.81 1 1.059.418.239.88.358 1.388.358.507 0 .97-.12 1.387-.358a2.67 2.67 0 0 0 1.015-1.06c.249-.467.373-1.01.373-1.626Z"/>
</svg>
